#!OML:ASF E:/inclinewalkrobotboard/Project1/Captureday1/Session1/subject1.ASF
:FULLY-SPECIFIED
:DEGREES
126
root 0 0 0 85.62903753602713 -33.19099539259516 -56.11299152595058
lowerback -11.446804920023975 9.709705378219635 14.187371027548458
upperback -20.787462688745876 12.308653884304375 3.125181785958445
thorax -15.220211198901275 4.232847937013972 -3.784081123365734
lowerneck -8.951427599801674 11.969136345058761 6.243214165411737
upperneck 10.158842624656286 14.264407253609424 9.157434205995536
head 4.527440428510383 7.721031369741969 2.790463036146007
rclavicle 9.376019801805776E-15 7.842905731058901E-15
rhumerus 33.87932582843972 -50.091938334521146 -14.691132814302762
rradius 19.91989182215928
rwrist 40.362909179751824
rhand 0.5701962629458457 2.329218843897066
rfingers 7.125020000000066
rthumb 26.137219205690013 -25.859505385043605
lclavicle 8.488205706319319E-16 2.029451005457468E-15
lhumerus -7.147777103576974 12.979423855266152 -4.232287794113098
lradius 20.910541221274457
lwrist -38.9099924848196
lhand 0.5200902817664417 34.36098939146933
lfingers 7.125020000000039
lthumb 26.05880973412903 62.48847041227998
rfemur 206.39311299662114 -182.71691085476272 -174.30589147442072
rtibia 56.75459365632068
rfoot 58.34678436119354 -31.020295694009462
rtoes 15.766052711919126
lfemur -54.308050312858974 25.55428248232999 21.30005568604944
ltibia 22.987039217599698
lfoot -66.1096123512923 8.911550731236874
ltoes 60.36775669844077
127
root 0 0 0 85.62502702422523 -33.188420097766134 -56.10983333288794
lowerback -11.445151340281928 9.709975243772133 14.190760959794883
upperback -20.789994350721877 12.309011948737547 3.126566494371637
thorax -15.223936099597775 4.232516883781176 -3.7837670816770377
lowerneck -8.948412227339507 11.9704096074656 6.242558338173886
upperneck 10.157513200477664 14.2663507381464 9.16064270409758
head 4.5261908821422825 7.721993362850018 2.7915011100917324
rclavicle 9.404380072403277E-15 7.859417838983316E-15
rhumerus 33.83761611881418 -50.10432804052296 -14.633046405108608
rradius 19.910723444329438
rwrist 40.37167955482094
rhand 0.5695442741462551 2.326297156428174
rfingers 7.125020000000066
rthumb 26.136579859819523 -25.86299116763455
lclavicle 8.600511219293043E-16 2.0465669143735476E-15
lhumerus -7.177988009089182 12.98428181540308 -4.221589719275798
lradius 20.90549824368123
lwrist -38.92297272418108
lhand 0.5147130980442258 34.35521635304793
lfingers 7.125020000000039
lthumb 26.053756850737585 62.48388465517078
rfemur 206.38511480730438 -182.70864466560414 -174.30000886935238
rtibia 56.74814710985143
rfoot 58.33777128999897 -31.028044647327214
rtoes 15.771584606067595
lfemur -54.30756186860794 25.557831428973138 21.30088389686169
ltibia 22.990356530104457
lfoot -66.10698660949451 8.913553215345113
ltoes 60.370278673365334
128
root 0 0 0 85.62119023891677 -33.186505164037456 -56.10694324217007
lowerback -11.443499800644965 9.71021589330861 14.194043026257411
upperback -20.792206857306947 12.30934108779361 3.1278575930509036
thorax -15.227289070796903 4.232205105246706 -3.7835503258040575
lowerneck -8.945657038553431 11.971435809940788 6.241852771244268
upperneck 10.156754647795474 14.267928968313454 9.16357800417004
head 4.525218213724936 7.722773583436441 2.7924555044762993
rclavicle 9.416957868747612E-15 7.874165643437769E-15
rhumerus 33.801361764111014 -50.11146266119975 -14.583688181865675
rradius 19.90893689670263
rwrist 40.3781899815086
rhand 0.568621736894432 2.325195588955779
rfingers 7.125020000000066
rthumb 26.135721663480314 -25.86463594742191
lclavicle 8.651238405082972E-16 2.0632106875573803E-15
lhumerus -7.209502676160845 12.987281085447508 -4.206422783566012
lradius 20.903800712307522
lwrist -38.931991047022244
lhand 0.50906383387493 34.3513071880327
lfingers 7.125020000000039
lthumb 26.048419268674383 62.481098685928565
rfemur 206.37894479764873 -182.70395384570108 -174.2966232992743
rtibia 56.74360622840855
rfoot 58.327560457671765 -31.033034086319525
rtoes 15.773982532998044
lfemur -54.307830231806726 25.560205499552023 21.301435173842307
ltibia 22.992328884566774
lfoot -66.10313149363981 8.913142067982363
ltoes 60.37161444010745
129
root 0 0 0 85.61941948706476 -33.18579603416009 -56.105603544016994
lowerback -11.442725087313747 9.710311881127662 14.195590849075739
upperback -20.79320772404109 12.309471479811618 3.1284617816033595
thorax -15.228814461270687 4.2320473352690575 -3.7834606563731006
lowerneck -8.944384663151647 11.971894185175175 6.241513265554082
upperneck 10.156456886573572 14.268632715004335 9.164939318139552
head 4.524786737644387 7.7231216970475804 2.7929010470488085
rclavicle 9.428560356440708E-15 7.879702868739262E-15
rhumerus 33.7756954585935 -50.11424834878702 -14.555125696628046
rradius 19.909401343066797
rwrist 40.38064859264931
rhand 0.5671652563686242 2.3256720768352084
rfingers 7.125020000000066
rthumb 26.134344928255384 -25.864624750595436
lclavicle 8.716778688578897E-16 2.0705767377985002E-15
lhumerus -7.2308896636331355 12.98826543352494 -4.197104481441777
lradius 20.903232071034914
lwrist -38.9362557865751
lhand 0.5054704924599782 34.34903971348181
lfingers 7.125020000000039
lthumb 26.04500827388568 62.47947110330383
rfemur 206.37444673878412 -182.70073238834624 -174.2944684407816
rtibia 56.74115773829398
rfoot 58.321691571959164 -31.036887013240516
rtoes 15.774081358656224
lfemur -54.307213297193044 25.561365626920903 21.30189096018666
ltibia 22.99282583070208
lfoot -66.10066578909786 8.91232848233476
ltoes 60.372419658199846
130
root 0 0 0 85.63552174892433 -33.1972489588848 -56.11929445312425
lowerback -11.449828471347786 9.709185399451739 14.180389891948407
upperback -20.781574723264985 12.308107712833694 3.122427646651262
thorax -15.21207994320632 4.233692670879412 -3.7846110960185024
lowerneck -8.95803268928161 11.96628202325114 6.244646324805762
upperneck 10.163770157837302 14.259976192310337 9.150513362606121
head 4.531030889678928 7.718857302164396 2.788182133142766
rclavicle 9.40704163739421E-15 7.845852467107053E-15
rhumerus 33.99435302114513 -50.064064782354045 -14.80419562606643
rradius 19.945528362067577
rwrist 40.36601427817083
rhand 0.5754880777998914 2.332662526769271
rfingers 7.125020000000067
rthumb 26.14266610623738 -25.854122432422805
lclavicle 9.002105581873923E-16 2.022430675180761E-15
lhumerus -7.135041964756468 12.972261415713131 -4.234057791056813
lradius 20.926441415656264
lwrist -38.87354822039025
lhand 0.525973836024211 34.37269928266545
lfingers 7.125020000000039
lthumb 26.064154334936497 62.498731084651496
rfemur 206.41321651074122 -182.73353486364863 -174.32491415950602
rtibia 56.76953729679502
rfoot 58.3618774756097 -30.99881644685155
rtoes 15.756004374247425
lfemur -54.29876175476305 25.548047246493585 21.29621233203728
ltibia 22.97642277262938
lfoot -66.11792447501087 8.9016484986982
ltoes 60.36453490392513
131
root 0 0 0 85.62911237203987 -33.19085992835098 -56.11301382450634
lowerback -11.446825579387328 9.709705464415608 14.187309221350088
upperback -20.787468719783607 12.30865036226519 3.1251550733486635
thorax -15.220208822079274 4.232851515951356 -3.784082727232554
lowerneck -8.951439000210247 11.969147143624525 6.24323435148
upperneck 10.158772884540095 14.264423836430845 9.157402634855181
head 4.52741794355425 7.721039057595169 2.790452054253506
rclavicle 9.375707069502379E-15 7.843437046197248E-15
rhumerus 33.88558626206458 -50.09174253182863 -14.69613240148567
rradius 19.919465088809424
rwrist 40.36285603307929
rhand 0.5707613926019386 2.3287221704141032
rfingers 7.125020000000066
rthumb 26.137759346060783 -25.859871712917663
lclavicle 8.48579963989762E-16 2.029468895856141E-15
lhumerus -7.143464215549363 12.979607228492682 -4.233223400061227
lradius 20.910591515483905
lwrist -38.90953725752995
lhand 0.5205901002393094 34.36134472868361
lfingers 7.125020000000039
lthumb 26.059286597441147 62.48876149735984
rfemur 206.39442261092765 -182.71775891306842 -174.30659728004485
rtibia 56.75508260392594
rfoot 58.3476406109658 -31.01902978363652
rtoes 15.766207463934084
lfemur -54.30829315582653 25.554206607878434 21.3000631954906
ltibia 22.987058011484063
lfoot -66.109938349715 8.911626710692792
ltoes 60.3677574958267
132
root 0 0 0 85.62504927396006 -33.188303886584976 -56.10982309392867
lowerback -11.445149785173268 9.709976809956537 14.190745711450347
upperback -20.790018617190633 12.309011094840642 3.12655760819383
thorax -15.223965112456147 4.23251593763789 -3.783767722632189
lowerneck -8.948394429946378 11.970426753104878 6.242566940685864
upperneck 10.157455852453484 14.266376890406434 9.160646044929042
head 4.526165558266606 7.722005941862417 2.791501706436078
rclavicle 9.404426385170621E-15 7.860067896567697E-15
rhumerus 33.84203570113684 -50.104179749397964 -14.63655828834024
rradius 19.91045540403485
rwrist 40.37161656027952
rhand 0.5699514352569302 2.3259414438782855
rfingers 7.125020000000066
rthumb 26.136969390098574 -25.86325345430246
lclavicle 8.60051695519342E-16 2.0468258516472427E-15
lhumerus -7.175195980261132 12.984457148842129 -4.221954471031481
lradius 20.90554412701986
lwrist -38.922695274053105
lhand 0.5149865486287946 34.35543911715801
lfingers 7.125020000000039
lthumb 26.054018054539828 62.48407791507818
rfemur 206.38609183499904 -182.70927821033882 -174.30056839453994
rtibia 56.74850369035232
rfoot 58.33830264237031 -31.027091965007934
rtoes 15.771659627981299
lfemur -54.30774042044273 25.55779362196995 21.300900844395834
ltibia 22.99037363494695
lfoot -66.10718605209279 8.913585632994396
ltoes 60.37030256781716
